<svg width="1000" height="1000" viewBox="0 0 1000 1000" fill="none" xmlns="http://www.w3.org/2000/svg">
<path d="M730 244.781V598.048C729.999 698.535 527.981 782 500.5 782C473.015 781.998 271.001 698.683 271 598.048V244.781L500.5 197L730 244.781ZM294.465 263.294V598.048C294.465 676.735 468.194 755.868 500.5 759.154C532.963 755.869 706.535 676.735 706.535 598.048V263.294L500.5 220.442L294.465 263.294ZM501.625 229.7H501.465L697.374 270.461V598.048C697.373 668.672 533.928 744.97 501.302 750.196H499.696C467.07 744.968 303.625 668.672 303.625 598.048V270.461L500.5 229.401L501.625 229.7ZM313.912 278.374V598.048C313.912 661.804 468.519 734.369 500.661 740.341C532.644 734.368 687.41 661.804 687.41 598.048V278.374L500.661 239.405L313.912 278.374ZM500.661 476.361H678.25V598.048C678.249 652.099 537.624 723.32 500.5 731.383V476.361H322.911V285.542L500.661 248.514V476.361Z" fill="#14742E"/>
<path d="M679 475.909H501.081V248L323 285.039V475.909H500.919V731C538.112 722.935 678.999 651.695 679 597.629V475.909Z" fill="#14742E"/>
<path d="M586.51 793.213C591.496 804.257 589.726 817.69 583.295 827.839H583.132C575.254 840.226 562.069 849.181 549.205 856.047V856.344C573.003 846.792 608.701 841.421 623.172 867.987C608.701 874.554 591.013 879.627 574.933 877.538C567.214 876.493 559.979 873.508 554.029 868.583C550.813 866.046 548.882 860.524 545.023 862.464C533.375 868.179 521.211 873.875 509.19 880.001C528.051 889.823 546.033 901.1 560.783 915.596C563.677 918.431 568.018 923.953 561.747 926.49C556.119 928.729 552.904 922.61 549.527 919.327C534.778 905.638 516.901 895 499.135 885.261C479.889 895.624 461.502 907.442 446.775 922.61C444.042 925.446 439.539 929.774 436.001 924.55C432.464 919.327 439.861 914.551 443.238 911.566C457.242 899.12 473.732 889.367 490.403 880.522C478.129 874.016 465.588 867.967 453.047 861.718C452.565 861.419 444.685 869.628 443.238 870.673C435.84 875.896 426.997 878.135 417.832 878.135C403.842 878.135 389.37 873.955 376.667 868.284C382.275 858.019 393.768 850.975 405.444 849.188L406.575 849.032L406.735 848.733C421.529 846.793 437.128 850.972 450.796 856.494V856.195C428.444 844.107 401.109 821.123 413.651 793.364C427.318 799.93 441.468 809.333 450.151 821.721C455.297 829.034 458.03 837.689 457.388 846.495C457.227 849.33 456.745 852.165 455.941 854.852C457.549 855.449 458.996 856.195 460.443 856.942C473.413 862.933 486.927 868.903 500.194 875.443C514.116 868.393 528.363 861.847 542.612 855.301C545.184 854.106 542.45 845.897 542.612 842.764C542.933 832.913 547.436 823.959 554.029 816.496C562.872 806.795 574.612 799.034 586.51 793.213ZM633.463 823.213C649.703 821.272 667.553 825.898 676.396 840.226C661.442 847.987 641.825 854.405 624.619 850.972C617.544 849.48 610.791 846.196 605.645 841.271C605.001 840.524 599.861 833.367 599.375 833.361H599.213C601.946 833.361 606.45 830.376 609.022 829.331C616.902 826.496 625.101 824.257 633.463 823.213ZM355.635 822.956C370.965 822.047 387.239 827.148 400.947 833.51C385.672 860.971 346.918 852.316 323.763 840.376C329.839 830.544 341.498 824.494 353.038 823.176L354.155 823.063L355.635 822.956ZM361.873 770.08C361.873 771.274 375.701 778.437 377.149 779.482C384.385 784.557 391.138 790.527 396.283 797.691C401.268 804.854 404.002 813.362 403.519 822.017C403.519 822.913 402.393 833.211 401.107 833.211L400.947 833.062C398.375 833.062 393.872 829.48 391.781 828.286C384.868 824.256 378.114 819.48 372.325 813.809C360.587 802.317 354.476 785.452 361.873 770.08ZM637.967 769.931C642.795 780.341 641.889 792.852 636.272 802.715L635.715 803.661C627.675 816.794 612.88 826.496 598.891 833.062C594.389 822.168 596.158 809.183 602.429 799.333C607.093 791.871 614.008 785.751 621.083 780.527C622.693 779.332 637.964 771.276 637.967 769.931ZM302.378 795.004C317.975 795.004 333.733 800.975 347.401 807.989C330.517 834.704 292.89 822.764 271.182 809.331C278.418 800.078 290.8 795.154 302.378 795.004ZM692.959 795.153C706.305 794.108 720.778 798.586 728.979 809.331C707.271 822.764 669.643 834.554 652.759 807.839C652.761 806.346 666.265 801.87 667.553 801.422C675.754 798.437 684.276 795.899 692.959 795.153ZM312.668 744.559C333.893 756.947 359.3 780.677 347.562 807.093C324.728 796.048 297.875 771.274 312.668 744.559ZM687.331 744.559C692.627 754.247 692.491 766.594 687.506 776.448L687.011 777.393C679.935 790.527 665.623 800.675 652.277 807.093C640.539 780.527 665.945 756.947 687.331 744.559ZM704.859 779.633C725.28 766.499 758.886 752.321 779.791 772.468C760.334 788.289 724.154 804.705 704.859 779.633ZM220.37 772.319C228.731 764.259 241.435 761.424 252.852 762.618H252.689C267.644 764.409 282.599 771.573 295.141 779.633C275.845 804.705 239.666 788.138 220.37 772.319ZM267.644 715.755C286.779 729.635 308.166 754.111 295.784 778.587C274.237 766.349 250.118 740.53 267.644 715.755ZM732.516 715.755C738.948 724.859 740.074 737.245 735.732 747.394H735.571C729.943 760.826 716.757 771.424 704.214 778.587C691.834 754.111 713.382 729.635 732.516 715.755ZM172.934 723.366C183.386 718.739 197.376 720.531 207.828 723.963C221.978 728.441 234.842 737.545 246.097 746.798C223.264 769.035 185.476 745.603 172.934 723.366ZM754.062 746.648C772.393 731.724 802.303 712.322 827.226 723.366C814.523 745.603 776.735 768.886 754.062 746.648ZM232.429 684.562C233.716 684.563 236.931 690.679 237.896 692.173C242.238 697.695 246.098 703.516 248.832 709.934C253.655 721.127 253.815 734.857 247.061 745.455C237.093 738.589 227.928 728.739 223.103 717.843C217.476 705.158 221.334 692.92 232.429 684.562ZM767.571 684.562C776.253 691.129 781.398 700.98 778.986 711.725H779.148C775.771 725.306 764.515 737.544 752.939 745.455C746.667 735.604 746.184 722.769 750.204 712.173C752.777 705.456 756.636 699.487 760.816 693.815C761.942 692.323 766.284 684.562 767.571 684.562ZM149.136 656.205C149.136 655.31 161.678 658.742 162.482 659.19C168.431 661.727 174.059 665.757 178.4 670.532H178.562C180.974 673.218 204.128 705.606 202.842 706.501C189.656 713.366 174.863 706.501 165.698 696.502C155.889 685.607 150.905 670.234 149.136 656.205ZM850.865 656.205C849.096 670.085 844.272 683.516 835.588 694.859C830.121 701.276 823.207 706.799 814.524 708.59C810.021 709.485 800.694 709.933 796.996 706.352C809.378 687.099 823.046 656.056 850.865 656.205ZM783.65 645.31C794.102 648.146 802.304 656.205 805.198 666.353C807.288 673.666 806.323 681.727 804.072 688.89C803.748 690.089 796.193 705.902 795.389 705.308C778.504 689.488 778.344 666.056 783.65 645.31ZM216.672 645.459C221.817 666.204 221.656 689.637 204.612 705.308C189.496 686.503 188.532 653.07 216.672 645.459ZM146.724 593.968C157.336 595.76 166.502 603.371 171.648 612.326H171.486C178.079 624.564 180.169 638.594 181.938 652.175C181.938 653.219 169.237 649.34 168.11 648.742C161.999 645.609 157.176 640.533 153.96 634.713C147.367 622.624 145.598 607.401 146.724 593.968ZM853.598 593.968C855.528 616.206 847.648 652.771 818.062 652.175C820.795 630.236 826.262 598.446 853.598 593.968ZM211.364 594.119C213.776 594.119 208.952 624.863 208.148 627.401C204.45 638.444 195.767 647.996 184.35 651.876C184.993 651.278 182.42 639.34 182.42 637.996C181.938 630.683 182.742 622.922 185.154 616.057C189.174 604.864 199.144 595.91 211.364 594.119ZM788.796 593.968C799.248 595.461 808.574 602.626 813.076 611.73L813.239 611.879C819.349 623.519 819.187 639.489 815.65 651.876C791.048 643.369 787.51 615.908 788.796 593.968ZM150.26 535.315C160.39 537.852 168.752 545.763 172.772 555.016L172.934 554.865C178.24 566.805 178.562 581.432 177.276 594.416C150.101 589.342 147.044 556.806 150.26 535.315ZM788.474 538.898C798.765 540.092 808.092 546.956 813.076 555.612C819.669 566.955 820.956 581.581 819.67 594.416C793.943 589.64 787.671 560.539 788.474 538.898ZM211.848 538.898C212.491 560.539 206.218 589.492 180.33 594.268C178.4 572.627 184.994 541.883 211.848 538.898ZM849.738 535.315C852.954 556.806 849.739 589.342 822.564 594.268C820.635 572.627 823.85 541.733 849.738 535.315ZM786.544 482.033C796.513 483.526 805.518 490.391 810.343 498.899H810.182C816.454 509.942 817.901 524.122 817.418 536.659C791.53 532.778 785.419 503.227 786.544 482.033ZM182.582 536.509H182.42C182.473 536.502 182.527 536.491 182.58 536.484C182.581 536.492 182.581 536.501 182.582 536.509ZM213.776 482.033C224.871 482.033 212.973 498.153 212.812 499.347C211.686 507.108 209.596 515.167 205.094 521.883C200.138 529.301 191.685 535.242 182.58 536.484C182.101 524.999 183.389 512.771 188.21 502.182C192.23 493.377 202.681 482.034 213.776 482.033ZM155.888 478.453C165.697 481.139 173.577 488.899 177.276 498.004C181.939 509.943 181.455 523.973 179.204 536.36C154.12 529.494 152.19 499.048 155.888 478.453ZM844.272 478.601C847.81 499.197 845.879 529.794 820.634 536.36C816.936 515.615 819.026 485.168 844.272 478.601ZM160.07 423.081C169.717 425.469 177.596 432.633 181.134 441.438C184.189 448.751 184.833 457.11 184.512 465.02C184.511 465.92 183.707 478.744 182.904 478.75C159.105 471.437 157.015 443.379 160.07 423.081ZM214.742 423.679C216.35 436.663 215.384 452.037 208.47 463.528C204.611 469.945 195.446 478.601 186.924 478.601L186.762 478.75C185.476 458.154 190.14 429.35 214.742 423.679ZM785.58 423.38C795.228 425.768 803.269 433.081 807.61 441.589V441.737C813.077 452.931 814.042 466.512 813.239 478.75C804.716 478.75 795.549 469.945 791.69 463.378C784.776 451.886 783.972 436.365 785.58 423.38ZM840.252 423.232C842.021 436.216 842.343 451.439 835.75 463.23C833.017 468.005 829.156 472.184 824.332 475.169C823.366 475.767 818.223 479.197 816.936 478.601C816.936 468.602 814.524 459.349 816.614 449.199C819.026 437.11 827.389 426.216 840.252 423.232ZM159.426 369.204C168.913 370.398 177.114 376.815 181.456 384.875V385.024C186.762 395.769 187.244 409.351 185.154 420.842C162.482 414.276 158.783 388.905 159.426 369.204ZM210.24 363.681C214.099 376.666 214.741 393.68 207.988 405.918C204.933 411.44 196.732 420.842 189.336 420.842C188.532 420.842 188.37 405.473 188.37 404.277C188.531 396.218 189.496 388.009 193.034 380.546C196.411 373.383 202.682 366.816 210.24 363.681ZM790.082 363.533C798.926 367.264 805.84 375.472 808.734 384.427C812.915 395.77 812.273 409.053 810.664 420.842C786.062 414.574 784.133 383.084 790.082 363.533ZM840.894 369.353C841.537 389.053 837.518 414.426 814.846 420.694C811.469 401.292 816.131 372.189 840.894 369.353ZM149.136 320.101C150.584 318.609 157.495 320.399 159.104 320.847C164.571 322.34 169.878 325.326 173.094 329.952V329.803C180.33 339.354 182.42 351.742 181.938 363.383C160.552 359.652 152.834 338.16 149.136 320.101ZM818.062 363.234C817.419 344.429 826.423 316.371 851.186 320.251C847.649 338.31 839.287 359.801 818.062 363.234ZM807.288 302.342C809.218 302.343 813.076 309.356 813.88 310.55C816.936 315.773 818.222 321.445 819.026 327.415L818.866 327.563C820.153 339.056 817.096 352.041 813.558 362.786C789.76 352.19 795.871 319.804 807.288 302.342ZM186.44 362.637H186.28C186.327 362.616 186.371 362.592 186.418 362.57C186.425 362.592 186.433 362.614 186.44 362.637ZM193.194 302.191C195.927 302.191 199.465 315.322 199.948 316.817C202.038 322.937 203.325 329.952 203.004 336.369C202.523 347.216 196.94 357.911 186.418 362.57C183.053 352.289 180.653 340.525 181.134 329.654C181.456 323.982 182.742 318.31 185.154 313.086C186.119 310.996 190.46 302.192 193.194 302.191ZM130 261.149C155.406 268.611 181.616 287.566 173.094 316.668C164.893 311.295 156.049 304.281 151.064 295.923C143.989 284.282 137.557 272.491 130 261.149ZM870 261C856.814 280.999 847.971 302.939 826.907 316.52C823.947 306.111 825.664 294.999 831.184 285.631L831.73 284.73V284.879C839.77 271.895 855.85 265.179 870 261Z" fill="#14742E"/>
<path d="M552.36 362.643C533.219 354.216 512.881 350.908 492.768 350.908H387.14V468.05L399.325 470.436V561.345C399.325 575.152 410.518 586.345 424.325 586.345H492.768C512.843 586.345 533.113 583.075 552.212 574.773L552.442 574.674L552.671 574.572C572.457 565.767 589.49 553.2 601.752 534.3L601.755 534.301C601.809 534.219 601.861 534.136 601.914 534.054L601.999 533.922C615.139 513.648 619.95 491.045 619.95 469.406C619.95 448.115 615.347 425.966 602.915 405.941L602.318 404.99L601.15 403.189C589.022 384.887 572.317 371.417 552.819 362.846L552.82 362.843C552.718 362.797 552.615 362.755 552.512 362.71C552.462 362.688 552.411 362.665 552.36 362.643Z" fill="#14742E"/>
<path d="M444.716 529.816V528.2C448.382 528.2 451.306 527.123 453.486 524.97C455.666 522.816 456.756 519.909 456.756 516.248V422.402C456.756 418.741 455.616 415.834 453.337 413.68C451.157 411.419 448.333 410.288 444.864 410.288V408.673H492.728C506.701 408.673 518.89 410.988 529.295 415.618C539.7 420.141 547.776 426.925 553.524 435.97C559.272 445.016 562.145 456.161 562.145 469.406C562.145 482.651 559.222 493.742 553.375 502.68C547.628 511.617 539.551 518.401 529.146 523.032C518.741 527.554 506.602 529.816 492.728 529.816H444.716ZM490.052 527.716H492.728C501.647 527.716 509.376 525.508 515.917 521.093C522.556 516.678 527.709 510.11 531.376 501.387C535.042 492.665 536.876 481.897 536.876 469.083C536.876 456.268 535.042 445.554 531.376 436.939C527.709 428.325 522.556 421.864 515.917 417.557C509.376 413.142 501.647 410.934 492.728 410.934H479.647V516.248C479.647 519.693 480.39 522.493 481.877 524.647C483.462 526.693 486.188 527.716 490.052 527.716Z" fill="white"/>
<path d="M603.163 626.765C590.281 626.765 578.984 624.181 569.272 619.012C559.561 613.735 551.98 606.359 546.529 596.883C541.178 587.407 538.503 576.37 538.503 563.771C538.503 551.064 541.178 540.027 546.529 530.658C551.98 521.29 559.66 514.021 569.569 508.853C579.479 503.684 591.222 501.1 604.798 501.1C608.069 501.1 610.794 501.261 612.974 501.584C615.154 501.8 617.186 502.069 619.068 502.392C620.951 502.715 623.082 503.038 625.46 503.361C627.938 503.576 631.01 503.684 634.676 503.684L639.135 535.989H637.649C636.559 529.635 634.379 524.036 631.109 519.19C627.938 514.237 623.924 510.36 619.068 507.561C614.312 504.653 609.01 503.199 603.163 503.199C597.416 503.199 592.114 504.707 587.258 507.722C582.402 510.737 578.24 514.937 574.772 520.321C571.304 525.813 568.578 532.381 566.597 540.027C564.714 547.565 563.772 555.856 563.772 564.901C563.772 576.854 565.457 587.299 568.826 596.237C572.196 605.067 576.952 611.959 583.096 616.912C589.24 621.758 596.474 624.181 604.798 624.181C614.312 624.181 622.14 621.112 628.284 614.974C634.527 608.728 638.392 600.06 639.879 588.968H641.365L637.054 623.858C632.397 623.858 628.284 624.073 624.717 624.504C621.149 625.042 617.681 625.527 614.312 625.957C611.042 626.496 607.325 626.765 603.163 626.765Z" fill="white"/>
<path d="M388.652 436.525L388.801 434.91H389.098C392.665 434.91 395.539 433.726 397.719 431.357C399.899 428.988 400.99 425.865 400.99 421.988V367.07L369.774 323.136C368.486 321.305 366.95 319.852 365.166 318.775C363.481 317.59 361.351 316.998 358.774 316.998H358.626V315.383H409.016V316.998C403.566 316.998 400.197 318.721 398.909 322.167C397.719 325.505 398.661 329.489 401.733 334.12L421.057 362.548L439.043 336.219C442.808 330.62 444.245 326.043 443.353 322.49C442.462 318.829 439.043 316.998 433.097 316.998V315.383H461.34V316.998C457.97 317.213 454.948 318.829 452.272 321.844C449.696 324.859 446.723 328.789 443.353 333.635L422.543 364.163V421.988C422.543 425.757 423.633 428.88 425.813 431.357C427.993 433.726 430.768 434.91 434.137 434.91H434.435L434.583 436.525H388.652Z" fill="white"/>
<path d="M460 476V483H324V476H460Z" fill="white"/>
<path d="M678 468V476H549V468H678Z" fill="white"/>
<path d="M500 245H508V412H500V245Z" fill="white"/>
<path d="M493 529H500V588H493V529Z" fill="white"/>
<path d="M499.736 149L585 170.829V197L499.736 176.439L412 197V170.829L499.736 149Z" fill="#14742E"/>
<path d="M655.138 151.737C656.146 151.994 656.139 153.428 655.129 153.677L594.804 168.517C594.174 168.672 593.565 168.195 593.565 167.546V162.557C593.565 162.1 593.255 161.701 592.813 161.588L499.978 137.909C499.818 137.869 499.651 137.868 499.49 137.908L404.194 161.557C403.748 161.668 403.435 162.068 403.435 162.528V167.426C403.435 168.081 402.815 168.559 402.182 168.394L371.353 160.33C370.719 160.164 370.1 160.642 370.1 161.297V199.409C370.1 200.128 369.332 200.587 368.699 200.246C368.417 200.095 368.079 200.095 367.798 200.246C367.164 200.587 366.396 200.128 366.396 199.409V159.581C366.396 159.109 366.066 158.701 365.604 158.603L342.211 153.621C341.175 153.4 341.148 151.932 342.175 151.673L499.242 112.124C499.565 112.043 499.904 112.043 500.226 112.126L655.138 151.737Z" fill="#14742E"/>
</svg>
